<svg width="26" height="26" viewBox="0 0 26 26" fill="none" xmlns="http://www.w3.org/2000/svg">
<path d="M16.0641 9.9359C15.8529 9.72465 15.5094 9.72465 15.2982 9.9359C15.0869 10.1472 15.0869 10.4917 15.2982 10.7018C15.9114 11.315 16.2504 12.1308 16.2504 12.9996C16.2504 14.7914 14.7923 16.2496 13.0004 16.2496C12.1316 16.2496 11.3159 15.9116 10.7027 15.2973C10.4914 15.0861 10.148 15.0861 9.93676 15.2973C9.72551 15.5075 9.72551 15.852 9.93676 16.0633C10.7536 16.8823 11.8423 17.333 13.0004 17.333C15.3903 17.333 17.3338 15.3895 17.3338 12.9996C17.3338 11.8415 16.8831 10.7527 16.0641 9.9359Z" fill="#9B9CA2"/>
<path d="M13.7554 8.74101C13.5094 8.69769 13.2581 8.66626 13.0003 8.66626C10.6105 8.66626 8.66699 10.6098 8.66699 12.9996C8.66699 13.2574 8.69843 13.5088 8.74281 13.7546C8.78938 14.0168 9.01799 14.2021 9.27474 14.2021C9.30618 14.2021 9.33756 14.1999 9.37006 14.1934C9.66363 14.1414 9.86081 13.8597 9.80881 13.5661C9.77524 13.382 9.75031 13.1946 9.75031 12.9996C9.75031 11.2078 11.2085 9.74958 13.0003 9.74958C13.1953 9.74958 13.3827 9.77451 13.5669 9.80701C13.8551 9.86551 14.1421 9.66183 14.1941 9.36826C14.2461 9.07469 14.049 8.79301 13.7554 8.74101Z" fill="#9B9CA2"/>
<path d="M25.8715 12.6497C25.749 12.5045 22.8187 9.08448 18.7767 6.99041C18.5145 6.85284 18.1842 6.95684 18.0465 7.22334C17.909 7.48878 18.013 7.81591 18.2795 7.95353C21.393 9.56553 23.8803 12.081 24.7307 12.9997C23.4394 14.3983 18.3575 19.4997 13.0004 19.4997C11.1826 19.4997 9.35065 19.061 7.5534 18.1943C7.2869 18.0632 6.96083 18.177 6.83083 18.4467C6.69977 18.7154 6.81352 19.0393 7.08327 19.1693C9.02783 20.1085 11.019 20.583 13.0005 20.583C19.6749 20.583 25.6224 13.6453 25.8726 13.3496C26.0437 13.148 26.0427 12.8523 25.8715 12.6497Z" fill="#9B9CA2"/>
<path d="M16.5545 6.04026C15.3217 5.62533 14.1257 5.41626 13.0001 5.41626C6.32564 5.41626 0.37814 12.3539 0.12789 12.6497C-0.0302936 12.836 -0.0432935 13.1069 0.0975736 13.3094C0.172324 13.4167 1.96307 15.9593 5.06682 18.0209C5.15889 18.0826 5.26182 18.1119 5.36582 18.1119C5.54026 18.1119 5.71251 18.0274 5.81651 17.8681C5.98226 17.6201 5.91401 17.2831 5.66482 17.1184C3.38551 15.6029 1.82551 13.7731 1.24157 13.0289C2.48851 11.6747 7.60401 6.49963 13.0001 6.49963C14.0086 6.49963 15.0888 6.69031 16.2089 7.06619C16.4927 7.16801 16.8004 7.01094 16.8946 6.72601C16.99 6.44219 16.8383 6.13563 16.5545 6.04026Z" fill="#9B9CA2"/>
<path d="M22.591 3.4088C22.3798 3.19755 22.0363 3.19755 21.8251 3.4088L3.40844 21.8255C3.19719 22.0367 3.19719 22.3802 3.40844 22.5914C3.51462 22.6965 3.65325 22.7496 3.79194 22.7496C3.93062 22.7496 4.06925 22.6965 4.17437 22.5914L22.591 4.17474C22.8023 3.96349 22.8023 3.62005 22.591 3.4088Z" fill="#9B9CA2"/>
</svg>
