<svg xmlns="http://www.w3.org/2000/svg" width="24" height="24" viewBox="0 0 24 24">
    <g fill="none" fill-rule="evenodd">
        <g>
            <path fill="#FBFCFF" d="M0 0H1440V1024H0z" transform="translate(-899 -418)"/>
            <g>
                <text fill="#5C5C5C" font-family="Poppins-Bold, Poppins" font-size="14" font-weight="bold" letter-spacing=".12" transform="translate(-899 -418) translate(380 397)">
                    <tspan x="76" y="25">Laporan Keuangan</tspan>
                </text>
                <g fill="#94959E" fill-rule="nonzero">
                    <g>
                        <path d="M23.91 6.747C23.723 6.472 19.18.031 12 .031 5.839.031.349 6.435.118 6.708c-.157.186-.157.459 0 .646.23.273 5.72 6.677 11.882 6.677 6.16 0 11.65-6.404 11.882-6.677.145-.172.158-.421.029-.607zM12 13.031c-4.94 0-9.635-4.71-10.828-6 1.19-1.29 5.882-6 10.828-6 5.779 0 9.858 4.703 10.854 5.973-1.15 1.249-5.873 6.027-10.854 6.027z" transform="translate(-899 -418) translate(380 397) translate(519 21) translate(0 5)"/>
                        <path d="M12 3.031c-2.206 0-4 1.794-4 4s1.794 4 4 4 4-1.794 4-4-1.794-4-4-4zm0 7c-1.654 0-3-1.346-3-3s1.346-3 3-3 3 1.346 3 3-1.346 3-3 3z" transform="translate(-899 -418) translate(380 397) translate(519 21) translate(0 5)"/>
                    </g>
                </g>
            </g>
        </g>
    </g>
</svg>
